<?xml version="1.0" standalone="no"?>
<!DOCTYPE svg PUBLIC "-//W3C//DTD SVG 20010904//EN"
        "http://www.w3.org/TR/2001/REC-SVG-20010904/DTD/svg10.dtd">
<svg version="1.0" xmlns="http://www.w3.org/2000/svg"
     width="100.000000pt" height="36.000000pt" viewBox="00 0 220.000000 56.000000"
     preserveAspectRatio="xMidYMid meet">

    <g transform="translate(0.000000,56.000000) scale(0.100000,-0.100000)"
       fill="#ffffff" stroke="none">
        <path d="M1900 480 c0 -28 -28 -37 -44 -15 -10 14 -16 15 -34 6 -24 -13 -28
-26 -11 -36 7 -5 4 -14 -7 -26 -12 -13 -21 -16 -28 -9 -15 15 -24 12 -37 -12
-9 -18 -8 -24 6 -34 22 -16 13 -44 -15 -44 -16 0 -20 -7 -20 -30 0 -23 4 -30
20 -30 28 0 36 -27 15 -50 -13 -15 -14 -23 -5 -39 9 -18 14 -19 31 -10 29 15
53 -5 38 -33 -8 -16 -7 -23 8 -34 23 -17 30 -17 37 1 3 8 15 15 26 15 15 0 20
-7 20 -25 0 -21 5 -25 30 -25 25 0 30 4 30 25 0 29 29 35 50 10 19 -23 54 -1
46 30 -8 29 17 53 38 36 11 -10 18 -7 30 11 16 22 15 24 -3 36 -26 18 -16 52
15 52 20 0 24 5 24 30 0 25 -4 30 -24 30 -31 0 -41 27 -16 42 15 10 17 16 8
32 -15 29 -14 29 -36 17 -28 -15 -51 12 -34 40 11 17 9 21 -13 31 -21 10 -27
8 -39 -7 -16 -23 -46 -13 -46 15 0 16 -7 20 -30 20 -23 0 -30 -4 -30 -20z
m115 -113 c61 -61 53 -154 -17 -197 -78 -49 -188 9 -188 100 0 82 47 129 129
130 36 0 49 -6 76 -33z"/>
        <path d="M490 459 c-45 -18 -60 -39 -60 -86 0 -55 21 -76 97 -99 32 -10 64
-22 71 -27 18 -14 15 -45 -7 -57 -36 -19 -69 -12 -93 20 -16 23 -30 30 -55 30
-38 0 -38 0 -19 -44 22 -53 60 -76 125 -76 103 0 160 65 127 144 -16 38 -47
57 -122 76 -54 13 -71 32 -49 54 28 27 95 13 95 -19 0 -10 11 -15 34 -15 43 0
48 7 30 48 -22 52 -107 77 -174 51z"/>
        <path d="M144 338 c-25 -68 -53 -138 -60 -157 -21 -52 -18 -61 21 -61 31 0 35
3 46 40 l12 40 67 0 67 0 12 -40 c11 -38 14 -40 52 -40 35 0 40 3 34 18 -3 9
-33 86 -66 170 l-61 152 -38 0 -38 0 -48 -122z m104 -13 c5 -16 13 -38 17 -47
6 -16 1 -18 -35 -18 -36 0 -41 3 -35 18 3 9 12 34 18 54 13 40 19 39 35 -7z"/>
        <path d="M776 309 c-79 -204 -77 -191 -31 -187 34 3 40 7 50 38 12 35 12 35
77 38 l65 3 17 -41 c14 -36 19 -40 51 -40 22 0 35 5 35 13 -1 6 -29 82 -63
167 l-63 155 -39 3 -40 3 -59 -152z m131 -45 c-3 -3 -21 -4 -40 -2 l-35 3 21
55 20 54 20 -52 c11 -29 17 -55 14 -58z"/>
        <path d="M1072 293 l3 -168 33 -3 32 -3 0 65 0 66 55 0 c95 0 135 35 135 116
0 26 -8 44 -29 65 -29 28 -32 29 -130 29 l-101 0 2 -167z m172 91 c36 -35 0
-77 -61 -72 -37 3 -38 4 -41 46 l-3 42 45 0 c27 0 51 -6 60 -16z"/>
        <path d="M1400 335 c0 -32 2 -35 30 -35 28 0 30 3 30 35 0 32 -2 35 -30 35
-28 0 -30 -3 -30 -35z"/>
        <path d="M1550 334 c0 -34 1 -35 33 -32 28 3 32 7 35 36 3 31 2 32 -32 32 -35
0 -36 -1 -36 -36z"/>
        <path d="M1400 155 c0 -32 2 -35 30 -35 28 0 30 3 30 35 0 32 -2 35 -30 35
-28 0 -30 -3 -30 -35z"/>
        <path d="M1550 154 c0 -34 1 -35 33 -32 28 3 32 7 35 36 3 31 2 32 -32 32 -35
0 -36 -1 -36 -36z"/>
    </g>
</svg>
